HIERARCHY
ROOT Hips
{
	OFFSET 0.000000 83.214638 0.000000
	CHANNELS 6 Xposition Yposition Zposition Xrotation Yrotation Zrotation
	JOINT Pelvis
	{
		OFFSET 0.000000 0.000000 0.000000
		CHANNELS 3 Xrotation Yrotation Zrotation
		JOINT LeftUpLeg
		{
			OFFSET 8.479700 -4.795502 -0.379100
			CHANNELS 3 Xrotation Yrotation Zrotation
			JOINT LeftLeg
			{
				OFFSET 0.024144 -32.555107 0.112900
				CHANNELS 3 Xrotation Yrotation Zrotation
				JOINT LeftFoot
				{
					OFFSET -0.024144 -32.638630 -3.012600
					CHANNELS 3 Xrotation Yrotation Zrotation
					JOINT LeftToeBase
					{
						OFFSET 0.970200 -13.225400 11.864200
						CHANNELS 3 Xrotation Yrotation Zrotation
						End Site
						{
							OFFSET 0.000000 12.319262 0.000000
						}
					}
					JOINT LFootTongue
					{
						OFFSET 1.142400 -1.059800 6.665200
						CHANNELS 3 Xrotation Yrotation Zrotation
						End Site
						{
							OFFSET 0.000000 12.319262 0.000000
						}
					}
				}
				JOINT LeftPantLeg
				{
					OFFSET 0.918482 -16.533964 -2.284700
					CHANNELS 3 Xrotation Yrotation Zrotation
					End Site
					{
						OFFSET 0.350399 24.744368 0.000000
					}
				}
			}
		}
		JOINT RightUpLeg
		{
			OFFSET -8.479700 -4.795502 -0.379100
			CHANNELS 3 Xrotation Yrotation Zrotation
			JOINT RightLeg
			{
				OFFSET -0.023144 -32.555092 0.112900
				CHANNELS 3 Xrotation Yrotation Zrotation
				JOINT RightFoot
				{
					OFFSET 0.023144 -32.638641 -3.012700
					CHANNELS 3 Xrotation Yrotation Zrotation
					JOINT RightToeBase
					{
						OFFSET -0.970200 -13.225400 11.864200
						CHANNELS 3 Xrotation Yrotation Zrotation
						End Site
						{
							OFFSET 0.000000 12.319244 0.000000
						}
					}
					JOINT RFootTongue
					{
						OFFSET -1.142200 -1.059800 6.665200
						CHANNELS 3 Xrotation Yrotation Zrotation
						End Site
						{
							OFFSET 0.000000 12.319243 0.000000
						}
					}
				}
				JOINT RightPantLeg
				{
					OFFSET -0.919482 -16.533978 -2.284800
					CHANNELS 3 Xrotation Yrotation Zrotation
					End Site
					{
						OFFSET -0.350400 24.744419 0.000000
					}
				}
			}
		}
	}
	JOINT Spine
	{
		OFFSET 0.000000 7.722000 1.166200
		CHANNELS 3 Xrotation Yrotation Zrotation
		JOINT Spine1
		{
			OFFSET 0.000000 12.024101 0.248800
			CHANNELS 3 Xrotation Yrotation Zrotation
			JOINT Spine2
			{
				OFFSET 0.000000 11.502998 -0.491200
				CHANNELS 3 Xrotation Yrotation Zrotation
				JOINT Neck
				{
					OFFSET 0.000000 18.430702 -3.123100
					CHANNELS 3 Xrotation Yrotation Zrotation
					JOINT Head
					{
						OFFSET 0.000000 9.051102 1.034000
						CHANNELS 3 Xrotation Yrotation Zrotation
						JOINT HairB
						{
							OFFSET 0.208400 24.786102 24.822300
							CHANNELS 3 Xrotation Yrotation Zrotation
							End Site
							{
								OFFSET 0.000000 32.263779 0.000000
							}
						}
						JOINT HairA
						{
							OFFSET -7.081100 24.428299 23.196600
							CHANNELS 3 Xrotation Yrotation Zrotation
							End Site
							{
								OFFSET 0.000000 32.263779 0.000000
							}
						}
						JOINT Hat
						{
							OFFSET 16.728800 15.048294 -15.439601
							CHANNELS 3 Xrotation Yrotation Zrotation
							End Site
							{
								OFFSET 0.000000 32.263779 0.000000
							}
						}
					}
				}
				JOINT LeftShoulder
				{
					OFFSET 6.197800 13.665199 -4.064700
					CHANNELS 3 Xrotation Yrotation Zrotation
					JOINT LeftArm
					{
						OFFSET 7.778100 -0.187103 -1.709300
						CHANNELS 3 Xrotation Yrotation Zrotation
						JOINT LeftForeArm
						{
							OFFSET 22.049376 0.000000 0.000000
							CHANNELS 3 Xrotation Yrotation Zrotation
							JOINT LeftHand
							{
								OFFSET 23.009392 0.000000 0.000000
								CHANNELS 3 Xrotation Yrotation Zrotation
								JOINT LeftHandThumb1
								{
									OFFSET 3.507191 -2.063065 3.133727
									CHANNELS 3 Xrotation Yrotation Zrotation
									JOINT LeftHandThumb2
									{
										OFFSET 3.101337 -1.790558 1.790558
										CHANNELS 3 Xrotation Yrotation Zrotation
										JOINT LeftHandThumb3
										{
											OFFSET 3.058640 -1.765907 1.765906
											CHANNELS 3 Xrotation Yrotation Zrotation
											End Site
											{
												OFFSET -0.415260 3.926476 -0.049563
											}
										}
									}
								}
								JOINT LeftHandIndex1
								{
									OFFSET 11.334419 -0.901459 3.706815
									CHANNELS 3 Xrotation Yrotation Zrotation
									JOINT LeftHandIndex2
									{
										OFFSET 3.283112 0.000000 0.000000
										CHANNELS 3 Xrotation Yrotation Zrotation
										JOINT LeftHandIndex3
										{
											OFFSET 3.323853 0.000000 0.000000
											CHANNELS 3 Xrotation Yrotation Zrotation
											End Site
											{
												OFFSET -1.135597 3.097809 0.402452
											}
										}
									}
								}
								JOINT LeftHandMiddle1
								{
									OFFSET 11.335861 0.000000 0.000000
									CHANNELS 3 Xrotation Yrotation Zrotation
									JOINT LeftHandMiddle2
									{
										OFFSET 3.410492 0.000000 0.000000
										CHANNELS 3 Xrotation Yrotation Zrotation
										JOINT LeftHandMiddle3
										{
											OFFSET 3.312172 0.000000 0.000000
											CHANNELS 3 Xrotation Yrotation Zrotation
											End Site
											{
												OFFSET -1.150200 3.080154 0.400270
											}
										}
									}
								}
								JOINT LeftHandRing1
								{
									OFFSET 11.514786 -0.013176 -3.003090
									CHANNELS 3 Xrotation Yrotation Zrotation
									JOINT LeftHandRing2
									{
										OFFSET 3.053307 0.000000 0.000000
										CHANNELS 3 Xrotation Yrotation Zrotation
										JOINT LeftHandRing3
										{
											OFFSET 3.295807 0.000000 0.000000
											CHANNELS 3 Xrotation Yrotation Zrotation
											End Site
											{
												OFFSET -1.281006 3.013344 0.375733
											}
										}
									}
								}
								JOINT LeftHandPinky1
								{
									OFFSET 10.518692 -0.960396 -5.730441
									CHANNELS 3 Xrotation Yrotation Zrotation
									JOINT LeftHandPinky2
									{
										OFFSET 2.861649 0.000000 0.000000
										CHANNELS 3 Xrotation Yrotation Zrotation
										JOINT LeftHandPinky3
										{
											OFFSET 2.863380 0.000000 0.000000
											CHANNELS 3 Xrotation Yrotation Zrotation
											End Site
											{
												OFFSET -0.843597 2.711159 0.369971
											}
										}
									}
								}
							}
							JOINT LSleeve
							{
								OFFSET 6.676277 -0.344902 -1.011730
								CHANNELS 3 Xrotation Yrotation Zrotation
								End Site
								{
									OFFSET 0.000000 14.885353 0.000000
								}
							}
						}
					}
				}
				JOINT RightShoulder
				{
					OFFSET -6.197800 13.665199 -4.064700
					CHANNELS 3 Xrotation Yrotation Zrotation
					JOINT RightArm
					{
						OFFSET -7.778100 -0.187103 -1.709300
						CHANNELS 3 Xrotation Yrotation Zrotation
						JOINT RightForeArm
						{
							OFFSET -22.049376 0.000000 0.000000
							CHANNELS 3 Xrotation Yrotation Zrotation
							JOINT RightHand
							{
								OFFSET -23.009392 0.000000 0.000000
								CHANNELS 3 Xrotation Yrotation Zrotation
								JOINT RightHandThumb1
								{
									OFFSET -3.507191 -2.063065 3.133727
									CHANNELS 3 Xrotation Yrotation Zrotation
									JOINT RightHandThumb2
									{
										OFFSET -3.101337 -1.790558 1.790558
										CHANNELS 3 Xrotation Yrotation Zrotation
										JOINT RightHandThumb3
										{
											OFFSET -3.058640 -1.765907 1.765906
											CHANNELS 3 Xrotation Yrotation Zrotation
											End Site
											{
												OFFSET 0.415260 3.926476 -0.049563
											}
										}
									}
								}
								JOINT RightHandIndex1
								{
									OFFSET -11.334419 -0.901459 3.706815
									CHANNELS 3 Xrotation Yrotation Zrotation
									JOINT RightHandIndex2
									{
										OFFSET -3.283112 0.000000 0.000000
										CHANNELS 3 Xrotation Yrotation Zrotation
										JOINT RightHandIndex3
										{
											OFFSET -3.323853 0.000000 0.000000
											CHANNELS 3 Xrotation Yrotation Zrotation
											End Site
											{
												OFFSET 1.135597 3.097809 0.402452
											}
										}
									}
								}
								JOINT RightHandMiddle1
								{
									OFFSET -11.335861 0.000000 0.000000
									CHANNELS 3 Xrotation Yrotation Zrotation
									JOINT RightHandMiddle2
									{
										OFFSET -3.410492 0.000000 0.000000
										CHANNELS 3 Xrotation Yrotation Zrotation
										JOINT RightHandMiddle3
										{
											OFFSET -3.312172 0.000000 0.000000
											CHANNELS 3 Xrotation Yrotation Zrotation
											End Site
											{
												OFFSET 1.150200 3.080154 0.400270
											}
										}
									}
								}
								JOINT RightHandRing1
								{
									OFFSET -11.514786 -0.013176 -3.003090
									CHANNELS 3 Xrotation Yrotation Zrotation
									JOINT RightHandRing2
									{
										OFFSET -3.053307 0.000000 0.000000
										CHANNELS 3 Xrotation Yrotation Zrotation
										JOINT RightHandRing3
										{
											OFFSET -3.295807 0.000000 0.000000
											CHANNELS 3 Xrotation Yrotation Zrotation
											End Site
											{
												OFFSET 1.281006 3.013344 0.375733
											}
										}
									}
								}
								JOINT RightHandPinky1
								{
									OFFSET -10.518692 -0.960396 -5.730441
									CHANNELS 3 Xrotation Yrotation Zrotation
									JOINT RightHandPinky2
									{
										OFFSET -2.861649 0.000000 0.000000
										CHANNELS 3 Xrotation Yrotation Zrotation
										JOINT RightHandPinky3
										{
											OFFSET -2.863380 0.000000 0.000000
											CHANNELS 3 Xrotation Yrotation Zrotation
											End Site
											{
												OFFSET 0.843597 2.711159 0.369971
											}
										}
									}
								}
							}
							JOINT RSleeve
							{
								OFFSET -6.676277 -0.344902 -1.011730
								CHANNELS 3 Xrotation Yrotation Zrotation
								End Site
								{
									OFFSET 0.000000 14.885353 0.000000
								}
							}
						}
					}
				}
				JOINT Backpack
				{
					OFFSET 0.000000 -2.471497 36.677502
					CHANNELS 3 Xrotation Yrotation Zrotation
					End Site
					{
						OFFSET 0.000000 20.427315 0.000000
					}
				}
				JOINT Hood
				{
					OFFSET 0.000000 18.754097 -10.431000
					CHANNELS 3 Xrotation Yrotation Zrotation
					JOINT Hood1
					{
						OFFSET 0.000000 -5.011002 -7.685901
						CHANNELS 3 Xrotation Yrotation Zrotation
						End Site
						{
							OFFSET 0.000000 9.175140 0.000000
						}
					}
				}
				JOINT LHoodieString
				{
					OFFSET 5.250500 16.397697 3.089900
					CHANNELS 3 Xrotation Yrotation Zrotation
					JOINT LHoodieString1
					{
						OFFSET 0.257700 -6.364304 3.694600
						CHANNELS 3 Xrotation Yrotation Zrotation
						JOINT LHoodieString2
						{
							OFFSET 0.000000 -9.643799 2.679100
							CHANNELS 3 Xrotation Yrotation Zrotation
							End Site
							{
								OFFSET 0.000000 10.009018 0.000000
							}
						}
					}
				}
				JOINT RHoodieString
				{
					OFFSET -5.250500 16.397697 3.089900
					CHANNELS 3 Xrotation Yrotation Zrotation
					JOINT RHoodieString1
					{
						OFFSET -0.257700 -6.364304 3.694600
						CHANNELS 3 Xrotation Yrotation Zrotation
						JOINT RHoodieString2
						{
							OFFSET 0.000000 -9.643799 2.679100
							CHANNELS 3 Xrotation Yrotation Zrotation
							End Site
							{
								OFFSET 0.000000 10.009018 0.000000
							}
						}
					}
				}
			}
			JOINT LBackpack_Strap
			{
				OFFSET 15.223200 -7.719803 -6.610900
				CHANNELS 3 Xrotation Yrotation Zrotation
				End Site
				{
					OFFSET 0.000000 16.040596 0.000000
				}
			}
			JOINT RBackpack_Strap
			{
				OFFSET -15.223000 -7.719803 -6.610900
				CHANNELS 3 Xrotation Yrotation Zrotation
				End Site
				{
					OFFSET 0.000000 16.040596 0.000000
				}
			}
		}
	}
	JOINT BoyFacialAnim_Joint
	{
		OFFSET 1.000000 -82.208099 -1.550900
		CHANNELS 3 Xrotation Yrotation Zrotation
		End Site
		{
			OFFSET 0.000000 30.012791 0.000000
		}
	}
}
MOTION
Frames: 5
Frame Time: 0.016667
48.482388 67.722565 -23.945265 17.216545 -3.777035 713.845309 -0.000002 0.000000 -0.000000 -74.259046 -0.663879 22.457430 68.923972 7.486789 -6.377115 -10.936116 6.420834 -1.176231 -0.000000 0.000003 -0.000000 -0.000000 0.000003 -0.000000 -0.000001 -0.000001 -0.000000 -8.485080 -10.485223 -5.771390 47.712450 -10.524621 -7.580921 -4.031102 -20.405940 9.357791 -0.000001 0.000004 -0.000001 -0.000001 0.000004 -0.000001 0.000002 -0.000002 -0.000001 37.330959 -2.750025 -7.879689 3.324700 -0.005388 1.710502 3.320223 0.069686 1.714682 -10.701421 -0.212994 -2.074793 -25.893806 -3.052781 -3.080084 0.000001 0.000000 -0.000000 0.000001 0.000000 -0.000000 0.000001 0.000000 -0.000000 -0.036532 1.382370 3.025444 -21.303544 22.272374 -26.305080 0.000127 -81.466706 0.000109 21.775890 22.164271 25.734537 3.362053 12.388433 8.079688 1.012535 0.452050 -1.079082 0.000002 -0.000002 0.000000 5.064570 -21.352665 12.934719 2.609079 5.399450 -51.555378 0.000001 -0.000000 -0.000000 1.066140 -16.631084 2.806722 1.129304 3.783485 -33.228484 -0.000001 -0.000000 -0.000007 -1.597802 -11.079092 -8.654908 0.192400 1.619550 -13.549494 0.000002 -0.000001 0.000003 -0.084872 0.765985 -17.087371 -0.017969 -4.042625 -0.607463 0.000001 0.000002 0.000002 -0.000003 -0.000001 0.000001 0.009035 -1.155009 -3.674751 151.437602 190.135227 -164.585689 -0.000019 51.387990 0.000010 -20.829652 10.502354 -15.904647 -12.864457 13.318247 -9.916075 16.682923 -44.602170 -3.768040 0.000001 0.000000 0.000003 2.738885 8.449596 -20.575390 4.083437 -6.332788 65.597369 -0.000002 -0.000005 0.000003 0.622169 6.773498 -5.159539 1.887346 -4.767017 43.179869 -0.000001 0.000000 -0.000000 -1.131961 4.266790 13.029853 0.409717 -2.355818 19.729442 0.000001 0.000003 -0.000001 -0.719375 -0.384290 28.142261 -0.000002 -0.000004 -0.000006 0.000001 0.000000 -0.000001 0.000000 -0.000000 0.000003 -0.000001 0.000000 0.000000 -0.000001 0.000000 0.000000 -0.000001 0.000000 0.000000 -0.000001 0.000000 0.000000 -0.000001 0.000000 0.000000 -0.000001 0.000000 -0.000000 -0.000001 0.000000 0.000000 -0.000001 0.000000 0.000000 -0.000001 0.000000 -0.000000 -0.000002 0.000001 -0.000000 -0.000002 0.000001 -0.000000 -0.000002 0.000000 -0.000000 
49.247391 68.196587 -24.519957 17.288600 -5.243659 714.553846 -0.000001 -0.000000 -0.000000 -73.517964 -0.036042 22.318922 67.444136 7.250272 -7.048241 -10.469252 8.180142 -0.286811 -0.000000 0.000000 -0.000000 -0.000000 0.000000 -0.000000 -0.000001 -0.000000 0.000000 -4.207028 -10.787432 -4.128732 44.079678 -10.508574 -6.708068 -3.388953 -18.945205 11.246810 -0.000001 -0.000003 0.000000 -0.000001 -0.000003 0.000000 0.000001 -0.000000 -0.000000 36.492290 -1.820504 -9.163454 3.203202 0.198375 1.111122 3.193072 0.230346 1.099232 -10.600859 -0.361713 -1.941250 -25.401462 -3.698654 -2.850401 -0.000001 0.000001 0.000002 -0.000001 0.000001 0.000002 -0.000001 0.000001 0.000002 -0.064974 1.578012 3.152919 -19.174945 24.361908 -27.926268 0.000070 -79.166926 0.000032 21.742825 19.912880 24.059546 3.300138 12.418663 8.222854 1.008018 -0.217202 -0.718186 0.000001 0.000000 0.000001 4.214758 -15.938709 14.998011 3.065124 5.730349 -56.255436 -0.000000 0.000001 -0.000004 1.006726 -12.867772 3.880724 1.355403 4.107166 -36.513659 -0.000000 -0.000001 -0.000005 -1.397089 -9.004245 -9.001287 0.249865 1.841582 -15.451988 0.000001 -0.000003 0.000001 0.061032 1.327411 -18.765378 -0.017902 -4.036226 -0.660501 0.000002 0.000001 0.000002 0.000000 0.000000 -0.000000 -0.017764 -1.281124 -4.036780 149.113384 185.575516 -167.091849 -0.000003 50.080159 0.000004 -19.793518 12.357550 -14.829770 -13.267549 13.341884 -12.514660 15.746294 -41.084998 -3.297725 -0.000000 0.000001 0.000001 2.814781 8.183793 -22.162057 4.115567 -6.347197 65.888205 0.000001 -0.000003 0.000003 0.741426 6.628421 -6.461712 1.897024 -4.777258 43.296074 -0.000002 0.000001 -0.000000 -1.020995 4.235009 12.021048 0.410786 -2.358799 19.755480 0.000001 0.000004 0.000002 -0.697549 -0.328805 27.345139 0.000001 -0.000002 0.000040 0.000003 0.000002 -0.000001 0.000000 0.000003 0.000001 0.000000 0.000000 0.000000 0.000000 0.000000 0.000000 0.000000 0.000000 0.000000 0.000000 0.000000 0.000000 0.000000 0.000000 -0.000000 0.000000 0.000000 0.000000 0.000000 0.000000 0.000000 0.000000 0.000000 -0.000000 0.000000 0.000000 0.000000 -0.000003 0.000001 0.000000 -0.000003 0.000001 0.000000 -0.000001 -0.000000 -0.000000 
49.948257 68.674484 -25.151155 17.400774 -6.697894 715.319264 0.000001 -0.000000 -0.000000 -72.772872 0.513984 22.089957 65.772154 7.048908 -7.658214 -9.829407 10.010084 0.499603 -0.000000 0.000002 -0.000000 -0.000000 0.000002 -0.000000 -0.000000 0.000001 0.000000 0.054830 -10.846553 -2.556130 40.109002 -10.519595 -5.913788 -2.388026 -16.930232 13.520583 0.000000 -0.000001 -0.000001 0.000000 -0.000001 -0.000001 -0.000003 -0.000001 -0.000000 35.614085 -0.783296 -10.395650 3.102291 0.410911 0.463501 3.088648 0.399144 0.434616 -10.460225 -0.510502 -1.817421 -24.881056 -4.351916 -2.622944 0.000000 -0.000000 0.000000 0.000000 -0.000000 0.000000 0.000000 -0.000000 0.000000 -0.090148 1.713343 3.358268 -16.735188 26.258225 -29.749586 0.000063 -77.279725 0.000074 21.168187 16.678151 23.120218 3.223318 12.405573 8.352240 1.171327 -0.386809 -0.336145 0.000003 -0.000000 0.000000 3.171716 -11.670049 16.036818 3.435169 5.959746 -59.887870 -0.000000 0.000006 -0.000001 0.764276 -9.819707 4.058088 1.547617 4.354129 -39.118686 -0.000001 -0.000000 -0.000007 -1.318751 -7.310466 -10.035995 0.303192 2.024573 -17.033023 0.000001 0.000003 0.000002 0.225494 1.872612 -20.940735 -0.017952 -4.040799 -0.622514 -0.000001 -0.000003 -0.000001 -0.000000 0.000000 -0.000003 -0.038182 -1.352650 -4.346495 147.092468 180.964906 -169.251978 0.000010 48.885064 -0.000004 -18.426937 14.080528 -13.748983 -13.525653 12.937287 -15.007830 14.406602 -36.388232 -2.721926 0.000002 -0.000002 0.000002 2.795210 7.831794 -23.384666 4.114974 -6.346937 65.882912 0.000001 -0.000002 0.000005 0.814607 6.378977 -7.540856 1.891397 -4.771317 43.228469 -0.000002 0.000000 -0.000002 -0.905260 4.118190 11.081088 0.408453 -2.352316 19.698727 0.000001 0.000001 -0.000001 -0.655705 -0.308707 26.499662 -0.000003 0.000001 -0.000007 0.000000 0.000003 -0.000003 -0.000002 -0.000000 -0.000001 0.000001 -0.000000 -0.000000 0.000001 -0.000000 -0.000000 0.000001 -0.000000 -0.000000 0.000001 -0.000000 -0.000000 0.000001 -0.000000 -0.000000 0.000001 0.000001 0.000000 0.000001 -0.000000 -0.000000 0.000001 -0.000000 -0.000000 0.000001 0.000001 0.000000 0.000001 -0.000001 -0.000001 0.000001 -0.000001 -0.000001 0.000001 -0.000000 -0.000000 
50.592419 69.136208 -25.841267 17.607493 -8.129561 716.112003 0.000001 -0.000000 0.000000 -72.123096 0.960134 21.818730 63.959394 6.894581 -8.232156 -9.021725 11.865890 1.207974 -0.000000 0.000000 -0.000000 -0.000000 0.000000 -0.000000 0.000000 -0.000002 0.000001 4.246438 -10.646480 -1.019949 35.781162 -10.563520 -5.190186 -0.856607 -14.495516 16.027959 0.000001 0.000001 -0.000001 0.000001 0.000001 -0.000001 -0.000001 -0.000003 0.000002 34.606478 0.362682 -11.519413 3.020529 0.627743 -0.197873 3.005873 0.573896 -0.244529 -10.288299 -0.657664 -1.705415 -24.341500 -5.005093 -2.402626 -0.000000 -0.000000 0.000001 -0.000000 -0.000000 0.000001 -0.000000 -0.000000 0.000001 -0.103278 1.737704 3.579328 -13.951005 28.085743 -31.729801 -0.000014 -75.802560 -0.000010 19.977706 12.451157 22.902283 3.128230 12.344146 8.469750 1.295419 -0.491934 -0.133279 -0.000001 0.000002 -0.000001 2.327514 -8.788935 16.270983 3.698114 6.103876 -62.389864 -0.000003 0.000004 -0.000001 0.517675 -7.684711 3.572681 1.690850 4.524044 -40.969018 0.000000 -0.000006 -0.000006 -1.317546 -6.088511 -11.508988 0.346166 2.159701 -18.209605 -0.000001 0.000001 -0.000002 0.393689 2.345662 -23.342609 -0.018055 -4.049868 -0.547542 0.000002 0.000005 0.000001 0.000002 0.000000 0.000001 -0.053445 -1.346301 -4.684761 145.443920 176.423335 -171.083521 0.000006 47.935265 -0.000003 -16.712276 15.308537 -12.732600 -13.646760 12.018246 -17.311586 12.612673 -30.503604 -2.049842 -0.000001 -0.000001 -0.000002 2.676469 7.399310 -24.154657 4.072187 -6.327728 65.495305 0.000002 -0.000002 0.000003 0.833919 6.021694 -8.333764 1.866133 -4.744392 42.923760 -0.000002 0.000000 -0.000002 -0.789145 3.905383 10.244399 0.401811 -2.333685 19.536277 -0.000000 0.000003 -0.000001 -0.592035 -0.333974 25.618035 0.000005 0.000019 -0.000000 0.000001 -0.000001 0.000000 0.000000 -0.000002 0.000002 0.000000 0.000000 0.000000 0.000000 0.000000 0.000000 0.000000 0.000000 0.000000 0.000000 0.000000 0.000000 0.000000 0.000000 0.000001 0.000000 -0.000001 -0.000000 0.000000 0.000000 0.000000 0.000000 0.000000 0.000001 0.000000 -0.000001 -0.000000 -0.000004 0.000000 0.000000 -0.000004 0.000000 0.000000 0.000001 -0.000000 0.000000 
51.187042 69.565216 -26.588833 17.945612 -9.525430 716.908567 -0.000002 0.000001 0.000000 -71.635202 1.290136 21.560684 62.066175 6.799151 -8.794850 -8.076597 13.725808 1.857061 -0.000000 0.000000 0.000000 -0.000000 0.000000 -0.000000 0.000001 -0.000002 0.000000 8.363456 -10.188634 0.525904 30.959103 -10.603841 -4.512329 1.446422 -11.824216 18.552153 -0.000000 0.000000 0.000001 -0.000000 0.000000 0.000001 -0.000000 0.000002 0.000000 33.411708 1.609422 -12.497013 2.946457 0.844199 -0.836785 2.933356 0.752105 -0.901577 -10.098335 -0.801022 -1.608731 -23.784587 -5.651556 -2.193429 -0.000001 0.000001 0.000003 -0.000001 0.000001 0.000003 -0.000001 0.000001 0.000003 -0.098898 1.635944 3.753591 -10.806438 29.895574 -33.826280 0.000079 -74.679267 0.000074 18.222200 7.419584 23.167465 3.023478 12.243337 8.568378 1.370613 -0.537371 -0.077108 -0.000003 -0.000002 0.000000 1.795229 -7.150331 15.927243 3.852724 6.181819 -63.834600 0.000002 0.000001 -0.000002 0.326717 -6.407217 2.664057 1.780289 4.624733 -42.090467 -0.000003 -0.000001 0.000002 -1.370257 -5.285360 -13.183791 0.375374 2.246496 -18.969585 -0.000000 -0.000002 0.000003 0.548635 2.722205 -25.747308 -0.018114 -4.057011 -0.488318 -0.000000 0.000002 0.000000 0.000000 0.000003 0.000002 -0.064312 -1.253857 -5.119260 144.216220 172.043695 -172.605547 -0.000010 47.324858 0.000009 -14.605441 16.018633 -11.759668 -13.652903 10.576961 -19.355124 10.416657 -23.733072 -1.300682 -0.000000 -0.000001 -0.000001 2.457361 6.886612 -24.347403 3.977531 -6.283973 64.633527 0.000002 0.000000 0.000000 0.792988 5.552556 -8.740642 1.817037 -4.691213 42.327048 0.000001 -0.000000 -0.000002 -0.679471 3.587229 9.584497 0.390070 -2.300325 19.245689 -0.000001 0.000001 0.000002 -0.507372 -0.415109 24.754089 -0.000008 -0.000020 -0.000003 0.000001 0.000004 -0.000003 0.000001 -0.000002 0.000002 -0.000000 -0.000000 0.000000 -0.000000 -0.000000 0.000000 -0.000000 -0.000000 0.000000 -0.000000 -0.000000 0.000000 -0.000000 -0.000000 0.000000 0.000001 -0.000000 0.000000 -0.000000 -0.000000 0.000000 -0.000000 -0.000000 0.000000 0.000001 -0.000000 0.000000 -0.000002 0.000001 0.000001 -0.000002 0.000001 0.000001 -0.000002 0.000001 0.000000 
